<svg width="228" height="228" viewBox="0 0 228 228" fill="none" xmlns="http://www.w3.org/2000/svg">
<path d="M108 0C48.4508 0 0.00305176 48.4478 0.00305176 107.998C0.00305176 167.555 48.4508 216.003 108.002 216.003C167.55 216.003 216 167.555 216 107.998C215.998 48.4478 167.55 0 108 0ZM108 5.94657C155.786 5.94657 195.904 39.0103 206.938 83.4437H9.0612C20.0989 39.0182 60.2057 5.94657 108 5.94657ZM171.835 88.5388V125.514H168.726V88.5388H171.835ZM159.085 121.478C158.775 122.371 158.381 123.122 157.893 123.73C157.421 124.333 156.866 124.819 156.244 125.176C155.624 125.542 154.946 125.793 154.217 125.927C153.5 126.069 152.757 126.131 152.006 126.131C149.578 126.131 147.814 125.433 146.686 124.034C145.564 122.634 145.009 120.735 145.009 118.368C145.009 116.498 145.449 114.907 146.299 113.568C147.164 112.25 148.584 111.31 150.538 110.754L156.4 109.099C156.953 108.957 157.407 108.803 157.745 108.633C158.091 108.463 158.362 108.22 158.543 107.917C158.733 107.613 158.867 107.2 158.941 106.7C159.008 106.199 159.049 105.551 159.049 104.755C159.049 102.996 158.611 101.758 157.745 101.058C156.88 100.345 155.718 99.9953 154.27 99.9953C152.405 99.9953 151.066 100.531 150.226 101.596C149.408 102.664 148.995 104.205 148.995 106.207H145.886C145.886 103.378 146.569 101.196 147.929 99.6851C149.294 98.1619 151.451 97.4072 154.387 97.4072C157.212 97.4072 159.205 98.0809 160.389 99.4224C161.566 100.768 162.147 102.532 162.147 104.713V120.978C162.147 122.493 162.688 123.248 163.751 123.248H164.628V125.526C164.048 125.735 163.567 125.836 163.182 125.836C161.981 125.836 161.013 125.629 160.29 125.188C159.567 124.748 159.193 123.843 159.193 122.424V121.49H159.085V121.478ZM135.261 102.309C135.864 100.75 136.755 99.5527 137.944 98.6874C139.135 97.828 140.554 97.3934 142.217 97.3934C142.555 97.3934 142.926 97.4448 143.292 97.5455V100.649C142.784 100.545 142.284 100.497 141.79 100.497C140.925 100.497 140.101 100.649 139.301 100.959C138.511 101.272 137.8 101.758 137.179 102.413C136.559 103.073 136.069 103.879 135.705 104.847C135.34 105.819 135.166 106.977 135.166 108.322V125.508H132.057V98.0118H135.166V102.301H135.261V102.309ZM123.145 121.682C122.354 123.236 121.347 124.364 120.116 125.076C118.885 125.779 117.563 126.131 116.103 126.131C114.005 126.131 112.3 125.55 111.006 124.392C109.712 123.236 109.062 121.358 109.062 118.773V98.0118H112.17V117.375C112.17 119.653 112.551 121.263 113.306 122.169C114.077 123.074 115.28 123.535 116.939 123.535C118.697 123.535 120.13 122.906 121.254 121.64C122.376 120.382 122.943 118.665 122.943 116.496V98.0118H126.053V125.508H123.253V121.676H123.145V121.682ZM101.557 122.614C102.041 123.033 102.788 123.234 103.784 123.234C104.364 123.234 105.005 123.134 105.686 122.924V125.514C105.309 125.724 104.594 125.826 103.519 125.826C101.409 125.826 99.9114 125.481 99.0323 124.791C98.1531 124.108 97.7244 122.845 97.7244 121.02V100.616H93.9372V98.0256H97.7244V90.4037H100.82V98.0256H105.684V100.616H100.82V120.344C100.824 121.439 101.063 122.197 101.557 122.614ZM86.9475 121.478C86.6373 122.371 86.2462 123.122 85.7582 123.73C85.2742 124.333 84.721 124.819 84.0987 125.176C83.4744 125.542 82.8106 125.793 82.0836 125.927C81.3565 126.069 80.6058 126.131 79.8531 126.131C77.429 126.131 75.6707 125.433 74.5486 124.034C73.4304 122.634 72.8614 120.735 72.8614 118.368C72.8614 116.498 73.298 114.907 74.1634 113.568C75.0287 112.25 76.4353 111.31 78.405 110.754L84.2626 109.099C84.8158 108.957 85.2663 108.803 85.5982 108.633C85.9538 108.463 86.2205 108.22 86.4101 107.917C86.5958 107.613 86.7223 107.2 86.7895 106.7C86.8724 106.199 86.9001 105.551 86.9001 104.755C86.9001 102.996 86.4635 101.758 85.5982 101.058C84.7328 100.345 83.583 99.9953 82.1369 99.9953C80.268 99.9953 78.9186 100.531 78.0928 101.596C77.269 102.664 76.8462 104.205 76.8462 106.207H73.7386C73.7386 103.378 74.432 101.196 75.7952 99.6851C77.1445 98.1619 79.296 97.4072 82.2337 97.4072C85.0707 97.4072 87.072 98.0809 88.2474 99.4224C89.413 100.768 90.0077 102.532 90.0077 104.713V120.978C90.0077 122.493 90.5312 123.248 91.6139 123.248H92.493V125.526C91.8984 125.735 91.4282 125.836 91.0331 125.836C89.826 125.836 88.8658 125.629 88.1388 125.188C87.4118 124.748 87.0581 123.843 87.0581 122.424V121.49H86.9455V121.478H86.9475ZM68.4163 88.5388V125.514H63.9653L49.8219 93.3019H49.7093V125.514H46.4002V88.5388H50.867L64.9965 120.749H65.1092V88.5388H68.4163ZM108 210.044C59.6762 210.044 19.1803 176.248 8.68386 131.077H207.315C196.811 176.248 156.335 210.044 108 210.044Z" fill="#73595A"/>
<path d="M71.7264 70.5326H74.6345V36.2148H72.406C72.3072 38.0304 71.5941 39.4568 70.2526 40.4999C68.9132 41.5509 66.7914 42.0922 63.8676 42.1258V44.2594H71.7264V70.5326Z" fill="#73595A"/>
<path d="M82.8926 66.1725C83.5999 67.7233 84.5818 68.9285 85.856 69.7997C87.1184 70.6788 88.7088 71.1075 90.6389 71.1075C92.5868 71.1075 94.185 70.6709 95.4356 69.7997C96.696 68.9285 97.6798 67.7174 98.399 66.1725C99.1042 64.6197 99.6021 62.7785 99.8727 60.6448C100.143 58.5073 100.296 56.184 100.296 53.6671C100.296 51.1502 100.149 48.819 99.8727 46.6834C99.6021 44.5498 99.1042 42.7145 98.399 41.1577C97.6779 39.6049 96.696 38.4018 95.4356 37.5306C94.1771 36.6593 92.5927 36.2148 90.6389 36.2148C88.7088 36.2148 87.1085 36.6514 85.856 37.5227C84.5818 38.3939 83.5979 39.6049 82.8926 41.1498C82.1735 42.7086 81.6895 44.5439 81.4189 46.6775C81.1344 48.8131 80.9961 51.1384 80.9961 53.6612C80.9961 56.1721 81.1344 58.5033 81.4189 60.6389C81.6954 62.7706 82.1795 64.6197 82.8926 66.1725ZM84.4632 46.6834C84.7062 44.777 85.0875 43.2281 85.613 42.029C86.1267 40.8318 86.8043 39.9724 87.6419 39.439C88.4796 38.9076 89.4832 38.6369 90.6409 38.6369C91.7986 38.6369 92.8081 38.9076 93.6595 39.439C94.4972 39.9724 95.1748 40.8318 95.6885 42.029C96.2021 43.2281 96.5814 44.7711 96.8244 46.6834C97.0694 48.5938 97.1899 50.9132 97.1899 53.6671C97.1899 56.4092 97.0674 58.7345 96.8244 60.6448C96.5814 62.5572 96.2041 64.1001 95.6885 65.2993C95.1748 66.4965 94.4972 67.3559 93.6595 67.8893C92.8081 68.4207 91.8045 68.6894 90.6409 68.6894C89.4773 68.6894 88.4737 68.4187 87.636 67.8893C86.7964 67.3539 86.1207 66.4965 85.6071 65.2993C85.0796 64.1001 84.7023 62.5572 84.4573 60.6448C84.2301 58.7424 84.1056 56.4151 84.1056 53.6671C84.1116 50.9191 84.238 48.5938 84.4632 46.6834Z" fill="#73595A"/>
<path d="M106.155 66.1725C106.861 67.7233 107.843 68.9285 109.117 69.7997C110.377 70.6788 111.97 71.1075 113.9 71.1075C115.846 71.1075 117.446 70.6709 118.696 69.7997C119.955 68.9285 120.943 67.7174 121.658 66.1725C122.367 64.6197 122.861 62.7785 123.132 60.6448C123.402 58.5073 123.558 56.184 123.558 53.6671C123.558 51.1502 123.416 48.819 123.132 46.6834C122.861 44.5498 122.367 42.7145 121.658 41.1577C120.943 39.6049 119.955 38.4018 118.696 37.5306C117.438 36.6593 115.848 36.2148 113.9 36.2148C111.97 36.2148 110.371 36.6514 109.117 37.5227C107.841 38.3939 106.861 39.6049 106.155 41.1498C105.434 42.7086 104.948 44.5439 104.678 46.6775C104.393 48.8131 104.255 51.1384 104.255 53.6612C104.255 56.1721 104.393 58.5033 104.678 60.6389C104.95 62.7706 105.436 64.6197 106.155 66.1725ZM107.718 46.6834C107.961 44.777 108.342 43.2281 108.868 42.029C109.382 40.8318 110.061 39.9724 110.895 39.439C111.734 38.9076 112.738 38.6369 113.9 38.6369C115.061 38.6369 116.067 38.9076 116.918 39.439C117.756 39.9724 118.44 40.8318 118.945 42.029C119.459 43.2281 119.844 44.7711 120.081 46.6834C120.324 48.5938 120.453 50.9132 120.453 53.6671C120.453 56.4092 120.326 58.7345 120.081 60.6448C119.844 62.5572 119.459 64.1001 118.945 65.2993C118.438 66.4965 117.754 67.3559 116.918 67.8893C116.065 68.4207 115.063 68.6894 113.9 68.6894C112.736 68.6894 111.732 68.4187 110.895 67.8893C110.061 67.3539 109.38 66.4965 108.868 65.2993C108.344 64.1001 107.963 62.5572 107.718 60.6448C107.491 58.7424 107.366 56.4151 107.366 53.6671C107.366 50.9191 107.491 48.5938 107.718 46.6834Z" fill="#73595A"/>
<path d="M129.703 52.2071C130.218 52.8946 130.852 53.3628 131.623 53.6414C132.382 53.92 133.247 54.0563 134.207 54.0563C135.181 54.0563 136.046 53.918 136.803 53.6414C137.56 53.3648 138.202 52.8946 138.723 52.2071C139.237 51.5275 139.636 50.6227 139.907 49.4729C140.191 48.3231 140.333 46.877 140.333 45.1326C140.333 43.3881 140.191 41.942 139.907 40.7922C139.636 39.6504 139.237 38.7337 138.723 38.0501C138.202 37.3784 137.56 36.9082 136.803 36.6317C136.044 36.3531 135.181 36.2168 134.207 36.2168C133.249 36.2168 132.382 36.3551 131.623 36.6317C130.852 36.9082 130.218 37.3784 129.703 38.058C129.189 38.7396 128.784 39.6504 128.511 40.8001C128.241 41.9499 128.106 43.396 128.106 45.1405C128.106 46.8849 128.241 48.331 128.511 49.4808C128.786 50.6227 129.191 51.5275 129.703 52.2071ZM131.692 39.8282C132.34 38.8384 133.178 38.3465 134.205 38.3465C135.274 38.3465 136.125 38.8364 136.748 39.8282C137.382 40.8179 137.694 42.5841 137.694 45.1385C137.694 47.7206 137.384 49.5006 136.748 50.4686C136.125 51.4465 135.274 51.9226 134.205 51.9226C133.691 51.9226 133.219 51.81 132.785 51.5848C132.338 51.3616 131.975 50.9902 131.664 50.4686C131.352 49.955 131.123 49.2596 130.961 48.3824C130.793 47.5112 130.724 46.4246 130.724 45.1365C130.724 42.5841 131.042 40.8179 131.692 39.8282Z" fill="#73595A"/>
<path d="M147.351 55.1206C146.829 55.8002 146.43 56.705 146.159 57.8627C145.875 59.0066 145.74 60.4527 145.74 62.1971C145.74 63.9416 145.875 65.3877 146.159 66.5375C146.43 67.6814 146.829 68.596 147.351 69.2796C147.864 69.9592 148.498 70.4353 149.257 70.706C150.014 70.9825 150.879 71.1208 151.851 71.1208C152.825 71.1208 153.678 70.9825 154.447 70.706C155.205 70.4353 155.84 69.9592 156.353 69.2796C156.869 68.596 157.274 67.6873 157.545 66.5375C157.815 65.3877 157.95 63.9416 157.95 62.1971C157.95 60.4527 157.815 59.0066 157.545 57.8627C157.274 56.7129 156.869 55.8022 156.353 55.1206C155.84 54.4351 155.205 53.9649 154.447 53.6864C153.676 53.4157 152.825 53.2715 151.851 53.2715C150.879 53.2715 150.012 53.4177 149.257 53.6864C148.498 53.9649 147.864 54.4351 147.351 55.1206ZM151.851 55.411C152.92 55.411 153.759 55.899 154.394 56.8848C155.028 57.8746 155.34 59.6427 155.34 62.1952C155.34 64.7773 155.028 66.5553 154.394 67.5332C153.759 68.5032 152.92 68.9872 151.851 68.9872C151.337 68.9872 150.851 68.8706 150.417 68.6415C149.984 68.4182 149.607 68.0468 149.308 67.5332C148.996 67.0156 148.767 66.3162 148.605 65.443C148.443 64.5698 148.362 63.4892 148.362 62.1952C148.362 59.6487 148.686 57.8746 149.322 56.8848C149.972 55.897 150.812 55.411 151.851 55.411Z" fill="#73595A"/>
<path d="M136.781 71.1134L151.663 36.2148H149.229L134.355 71.1134H136.781Z" fill="#73595A"/>
<path d="M85.4745 111.124C84.7554 111.395 84.0995 111.624 83.4732 111.8L80.8892 112.476C79.3344 112.896 78.155 113.531 77.3608 114.384C76.5805 115.249 76.1715 116.512 76.1715 118.169C76.1715 119.819 76.5627 121.144 77.3332 122.097C78.1155 123.063 79.1764 123.549 80.5237 123.549C82.4143 123.549 83.9573 122.873 85.1347 121.53C86.3122 120.182 86.893 118.272 86.893 115.791V109.982H86.7804C86.6243 110.468 86.1818 110.846 85.4745 111.124Z" fill="#73595A"/>
<path d="M157.612 111.124C156.908 111.395 156.247 111.624 155.624 111.8L153.028 112.476C151.474 112.896 150.31 113.531 149.514 114.384C148.716 115.249 148.323 116.512 148.323 118.169C148.323 119.819 148.7 121.144 149.486 122.097C150.257 123.063 151.326 123.549 152.663 123.549C154.569 123.549 156.11 122.873 157.274 121.53C158.451 120.182 159.044 118.272 159.044 115.791V109.982H158.937C158.762 110.468 158.329 110.846 157.612 111.124Z" fill="#73595A"/>
<path d="M53.1575 152.557C52.6044 151.941 51.8971 151.468 51.0496 151.139C50.1981 150.807 49.1807 150.637 47.9934 150.637H41.306V175.381H43.5345V164.638H47.2387C48.6453 164.638 49.8346 164.448 50.8125 164.082C51.7904 163.717 52.5569 163.205 53.1516 162.567C53.7324 161.933 54.1631 161.188 54.4278 160.337C54.6708 159.477 54.8091 158.584 54.8091 157.632C54.8091 156.593 54.6708 155.645 54.4002 154.78C54.1216 153.902 53.7245 153.171 53.1575 152.557ZM52.1599 160.048C51.8754 160.704 51.5099 161.24 51.0377 161.639C50.5675 162.044 50.0005 162.336 49.3506 162.504C48.7105 162.674 48.0289 162.761 47.3078 162.761H43.5325V152.496H47.3078C49.0384 152.496 50.3463 152.895 51.2392 153.659C52.1322 154.442 52.5747 155.759 52.5747 157.634C52.5767 158.586 52.4305 159.392 52.1599 160.048Z" fill="#73595A"/>
<path d="M71.5802 171.752L71.4952 169.041C71.4537 167.101 71.1297 165.681 70.5213 164.762C69.897 163.849 68.8183 163.328 67.2714 163.18V163.113C68.1091 162.951 68.8025 162.678 69.3715 162.273C69.9385 161.882 70.3948 161.408 70.7326 160.866C71.0843 160.313 71.3411 159.675 71.4853 158.988C71.6454 158.286 71.7422 157.575 71.7422 156.824C71.7422 154.87 71.187 153.333 70.1084 152.255C69.0277 151.166 67.4275 150.633 65.3255 150.633H57.9427V175.375H60.1613V164.085H64.3495C65.3531 164.085 66.1612 164.173 66.7854 164.363C67.4077 164.545 67.9036 164.871 68.2592 165.315C68.6109 165.762 68.8677 166.356 69.0001 167.099C69.1304 167.85 69.2292 168.757 69.2707 169.845L69.3517 171.922C69.3695 172.605 69.4228 173.226 69.4979 173.82C69.5809 174.431 69.7409 174.956 69.9977 175.389H72.5936C72.157 174.917 71.8726 174.35 71.7698 173.712C71.6552 173.069 71.594 172.414 71.5802 171.752ZM63.992 162.204H60.1653V152.51H64.2211C66.2362 152.51 67.6112 152.942 68.3896 153.794C69.1423 154.653 69.5394 155.835 69.5394 157.375C69.5394 159.025 69.0514 160.256 68.0794 161.034C67.1015 161.819 65.7364 162.204 63.992 162.204Z" fill="#73595A"/>
<path d="M82.9754 150.219C80.4329 150.219 78.4751 151.234 77.1179 153.281C75.7567 155.324 75.0613 158.57 75.0613 163.005C75.0613 167.452 75.7547 170.684 77.1179 172.727C78.4711 174.773 80.4349 175.797 82.9754 175.797C85.5002 175.797 87.4403 174.773 88.8172 172.727C90.1962 170.684 90.8896 167.438 90.8896 163.005C90.8896 158.57 90.1962 155.324 88.8172 153.281C87.4422 151.24 85.5002 150.219 82.9754 150.219ZM88.2661 168.108C88.0092 169.494 87.6279 170.617 87.1439 171.482C86.656 172.347 86.0613 172.969 85.356 173.355C84.6349 173.732 83.8546 173.928 82.9754 173.928C82.0963 173.928 81.312 173.732 80.6048 173.355C79.8856 172.969 79.2969 172.345 78.8208 171.482C78.3368 170.617 77.9555 169.494 77.6848 168.108C77.428 166.715 77.2897 165.02 77.2897 163.011C77.2897 161.001 77.428 159.306 77.6848 157.92C77.9555 156.527 78.3388 155.411 78.8208 154.539C79.291 153.674 79.8856 153.052 80.6048 152.661C81.312 152.289 82.0963 152.086 82.9754 152.086C83.8546 152.086 84.6349 152.289 85.356 152.661C86.0613 153.052 86.6579 153.676 87.1439 154.539C87.6279 155.411 88.0092 156.527 88.2661 157.92C88.5328 159.306 88.6592 161.003 88.6592 163.011C88.6592 165.018 88.5328 166.715 88.2661 168.108Z" fill="#73595A"/>
<path d="M107.704 153.788C107.015 152.755 106.112 151.962 104.948 151.429C103.798 150.901 102.325 150.639 100.509 150.639H94.5487V175.383H100.509C102.323 175.383 103.798 175.118 104.948 174.585C106.11 174.065 107.021 173.281 107.704 172.226C108.397 171.198 108.854 169.893 109.109 168.346C109.352 166.791 109.49 165.019 109.49 163.006C109.49 160.989 109.352 159.219 109.109 157.664C108.854 156.127 108.397 154.821 107.704 153.788ZM106.882 168.073C106.612 169.405 106.203 170.487 105.636 171.297C105.081 172.101 104.361 172.67 103.496 173.008C102.617 173.34 101.58 173.508 100.375 173.508H96.7673V152.496H100.375C101.578 152.496 102.617 152.672 103.496 153.009C104.361 153.333 105.081 153.916 105.636 154.712C106.205 155.524 106.614 156.605 106.882 157.958C107.153 159.323 107.275 161.008 107.275 163.035C107.275 165.051 107.153 166.728 106.882 168.073Z" fill="#73595A"/>
<path d="M124.742 168.417C124.742 172.088 123.12 173.935 119.888 173.935C116.656 173.935 115.038 172.088 115.038 168.417V150.637H112.823V168.452C112.823 171.062 113.432 172.941 114.653 174.079C115.869 175.227 117.614 175.796 119.902 175.796C122.185 175.796 123.946 175.227 125.147 174.079C126.364 172.943 126.974 171.056 126.974 168.452V150.637H124.756V168.417H124.742Z" fill="#73595A"/>
<path d="M141.86 172.088C141.007 173.319 139.792 173.935 138.202 173.935C137.324 173.935 136.524 173.738 135.815 173.361C135.114 172.969 134.517 172.345 134.031 171.482C133.551 170.617 133.166 169.494 132.909 168.115C132.638 166.723 132.504 165.026 132.504 163.016C132.504 161.009 132.638 159.312 132.909 157.919C133.168 156.543 133.551 155.418 134.031 154.547C134.517 153.682 135.114 153.052 135.815 152.668C136.524 152.297 137.324 152.094 138.202 152.094C139.792 152.094 140.995 152.633 141.833 153.715C142.658 154.782 143.083 156.161 143.083 157.852H145.294C145.294 156.839 145.171 155.865 144.903 154.938C144.632 154.018 144.213 153.2 143.63 152.51C143.063 151.813 142.319 151.252 141.414 150.847C140.521 150.428 139.44 150.225 138.196 150.225C135.653 150.225 133.693 151.24 132.326 153.281C130.961 155.337 130.285 158.583 130.285 163.011C130.285 167.452 130.961 170.684 132.326 172.732C133.691 174.781 135.647 175.796 138.196 175.796C140.44 175.796 142.17 175.052 143.427 173.55C144.672 172.049 145.373 169.866 145.535 166.993H143.332C143.212 169.17 142.724 170.871 141.86 172.088Z" fill="#73595A"/>
<path d="M146.754 152.496H153.137V175.381H155.356V152.496H161.737V150.637H146.754V152.496Z" fill="#73595A"/>
<path d="M174.507 163.212C173.608 162.732 172.648 162.341 171.607 162.029C170.574 161.732 169.612 161.379 168.713 160.982C167.82 160.583 167.083 160.041 166.502 159.366C165.907 158.696 165.625 157.763 165.625 156.525C165.625 155.904 165.726 155.324 165.935 154.794C166.131 154.267 166.435 153.794 166.84 153.403C167.225 152.983 167.705 152.678 168.286 152.443C168.855 152.214 169.552 152.084 170.289 152.084C171.822 152.084 172.96 152.524 173.656 153.395C174.379 154.255 174.73 155.45 174.73 156.977H176.947C176.947 154.739 176.408 153.05 175.311 151.914C174.236 150.78 172.534 150.225 170.236 150.225C169.139 150.225 168.179 150.387 167.342 150.699C166.488 151.037 165.765 151.469 165.184 152.038C164.617 152.605 164.177 153.295 163.865 154.099C163.555 154.911 163.412 155.804 163.412 156.772C163.412 157.906 163.566 158.854 163.918 159.577C164.258 160.314 164.716 160.93 165.265 161.424C165.819 161.91 166.461 162.301 167.186 162.613C167.917 162.932 168.646 163.21 169.39 163.453C170.133 163.696 170.862 163.939 171.593 164.196C172.316 164.447 172.958 164.765 173.513 165.156C174.061 165.561 174.521 166.047 174.859 166.63C175.212 167.224 175.374 167.983 175.374 168.9C175.374 170.644 174.886 171.922 173.893 172.721C172.921 173.525 171.641 173.945 170.04 173.945C168.363 173.945 167.132 173.471 166.32 172.499C165.524 171.539 165.105 170.267 165.105 168.659V167.726H162.914V168.455C162.914 170.901 163.525 172.742 164.762 173.965C165.979 175.188 167.784 175.812 170.123 175.812C171.259 175.812 172.281 175.656 173.193 175.36C174.098 175.064 174.882 174.601 175.544 173.995C176.208 173.386 176.708 172.636 177.071 171.717C177.431 170.824 177.613 169.771 177.613 168.566C177.613 167.145 177.314 166.023 176.72 165.199C176.137 164.354 175.4 163.706 174.507 163.212Z" fill="#73595A"/>
</svg>
