<svg width="216" height="216" viewBox="0 0 216 216" fill="none" xmlns="http://www.w3.org/2000/svg">
<path d="M147.177 41.4257C146.098 39.1101 142.741 39.0105 141.526 41.2557C141.473 41.3523 136.177 51.0242 125.911 60.0393C122.837 62.7389 127.014 67.4938 130.087 64.7942C136.364 59.2816 140.901 53.5833 143.703 49.5911C146.184 56.0631 150.084 67.6588 152.16 81.1545C154.009 93.1797 154.068 104.34 152.336 114.325C150.2 126.635 145.307 137.195 137.795 145.711C130.648 153.812 120.841 159.048 110.18 160.454C99.3318 161.885 88.0892 159.244 78.5249 153.021C76.108 151.448 73.937 149.676 72.0263 147.738C74.6516 144.348 77.7098 141.224 81.1591 138.344C90.2994 130.713 100.852 124.982 110.287 117.739C116.008 113.347 121.325 108.501 125.761 102.791C126.816 101.432 127.061 99.6458 125.761 98.3168C124.68 97.2124 122.332 96.9694 121.286 98.3168C106.815 116.946 82.8162 124.752 67.8637 142.644C65.0346 138.412 63.2425 133.651 62.6341 128.574C61.4385 118.592 65.0426 108.312 72.5233 100.371C80.1402 92.2845 88.8212 88.1657 98.8728 83.3968C104.217 80.8613 109.742 78.2398 115.874 74.7323C119.425 72.701 116.283 67.2074 112.732 69.2391C106.811 72.6259 101.396 75.1947 96.1605 77.6791C85.531 82.7227 76.351 87.0777 67.9168 96.0316C59.1473 105.342 54.9315 117.477 56.3507 129.326C57.1704 136.17 59.7679 142.517 63.8955 147.996C60.0847 153.874 57.5543 160.516 56.1815 167.379C55.3863 171.356 61.4841 173.057 62.2835 169.061C63.4551 163.205 65.5294 157.887 68.4003 153.054C70.4055 154.971 72.633 156.737 75.0735 158.325C84.1687 164.244 94.3258 167.126 104.316 167.125C118.599 167.125 132.54 161.233 142.54 149.897C150.856 140.471 156.255 128.837 158.585 115.319C160.428 104.634 160.361 92.7633 158.389 80.0341C155.053 58.4982 147.497 42.1126 147.177 41.4257V41.4257Z" fill="black"/>
<path d="M184.368 31.6322C163.969 11.2341 136.848 0 108 0C79.1522 0 52.0311 11.2341 31.6322 31.6322C11.2341 52.0311 0 79.1522 0 108C0 136.848 11.2341 163.969 31.6322 184.368C52.0311 204.766 79.1522 216 108 216C123.812 216 139.06 212.652 153.319 206.051C157.032 204.332 154.373 198.59 150.661 200.308C137.241 206.522 122.888 209.672 108 209.672C80.8422 209.672 55.3103 199.096 36.107 179.893C16.9037 160.69 6.32812 135.158 6.32812 108C6.32812 80.8422 16.9037 55.3103 36.107 36.107C55.3103 16.9037 80.8422 6.32812 108 6.32812C135.158 6.32812 160.69 16.9037 179.893 36.107C199.096 55.3103 209.672 80.8422 209.672 108C209.672 141.916 192.844 173.48 164.657 192.433C161.262 194.716 164.793 199.967 168.188 197.684C198.126 177.554 216 144.026 216 108C216 79.1522 204.766 52.0311 184.368 31.6322Z" fill="black"/>
</svg>
