<svg width="216" height="194" viewBox="0 0 216 194" fill="none" xmlns="http://www.w3.org/2000/svg">
<path d="M155.345 0.835938C136.871 0.835938 119.479 9.27386 108 23.6104C96.5212 9.27386 79.1294 0.835938 60.6547 0.835938C27.2097 0.835938 0 28.0452 0 61.4906C0 76.7713 5.68434 93.2287 16.8948 110.407C25.734 123.95 38.0299 138.001 53.4402 152.17C79.5732 176.195 106.081 192.535 106.346 192.697C106.854 193.008 107.427 193.163 108 193.163C108.572 193.163 109.146 193.007 109.653 192.697C109.917 192.534 136.426 176.195 162.559 152.17C177.97 138.002 190.265 123.95 199.104 110.407C210.316 93.2287 216 76.7709 216 61.4906C216 28.0452 188.79 0.835938 155.345 0.835938V0.835938ZM193.833 106.905C185.294 120 173.356 133.638 158.351 147.442C136.381 167.653 114.138 182.334 108 186.258C101.87 182.341 79.6875 167.704 57.7235 147.51C42.6997 133.699 30.7463 120.051 22.1944 106.948C11.6661 90.816 6.32812 75.5221 6.32812 61.4906C6.32812 31.5349 30.699 7.16406 60.6547 7.16406C78.5055 7.16406 95.2307 15.9648 105.395 30.706C105.985 31.5624 106.959 32.0741 108 32.0741C109.04 32.0741 110.014 31.5628 110.604 30.706C120.768 15.9648 137.494 7.16406 155.344 7.16406C185.301 7.16406 209.672 31.5345 209.672 61.4906C209.672 75.5099 204.343 90.7894 193.833 106.905Z" fill="black"/>
<path d="M157.527 31.8001C148.332 27.6509 135.99 48.4565 130.147 61.4047C129.633 62.5434 129.129 63.7044 128.648 64.8552C127.975 66.4677 128.737 68.321 130.349 68.9943C131.961 69.668 133.814 68.9065 134.488 67.2937C134.945 66.1977 135.426 65.0923 135.915 64.0081C139.408 56.2676 143.519 49.2324 147.491 44.1977C151.567 39.0314 154.129 37.719 154.907 37.6084C155.338 38.2649 156.05 41.0539 154.872 47.5284C153.725 53.8376 151.169 61.5752 147.676 69.3157C144.901 75.465 141.711 81.2067 138.521 85.8317C131.114 77.2761 120.178 71.855 108 71.855C102.017 71.855 96.334 73.1653 91.2213 75.5114C89.8257 70.9741 87.9986 66.158 85.8533 61.4047C80.0104 48.457 67.6693 27.6492 58.4728 31.8001C49.2776 35.9496 56.7132 58.9701 62.5562 71.9183C65.8468 79.2104 69.7128 85.9899 73.5439 91.2148C69.7976 97.3375 67.6359 104.53 67.6359 112.219C67.6359 134.476 85.7428 152.582 108 152.582C130.257 152.582 148.363 134.476 148.363 112.219C148.363 104.53 146.202 97.3384 142.456 91.2157C146.287 85.9916 150.156 79.2041 153.444 71.9183C159.287 58.9701 166.723 35.9496 157.527 31.8001V31.8001ZM68.324 69.3153C64.8309 61.5747 62.2756 53.8371 61.1281 47.528C59.9506 41.0539 60.6619 38.2645 61.0935 37.608C61.8714 37.7186 64.4335 39.0314 68.5092 44.1973C72.4812 49.232 76.5924 56.2671 80.0855 64.0077C82.3328 68.9879 84.2106 74.0251 85.5661 78.6797C82.561 80.6962 79.8404 83.1043 77.4787 85.8321C74.2893 81.2084 71.1016 75.47 68.324 69.3153ZM100.611 132.63C100.58 132.584 100.538 132.521 100.6 132.407C100.661 132.292 100.737 132.292 100.792 132.292H115.208C115.263 132.292 115.339 132.292 115.4 132.407C115.462 132.521 115.42 132.584 115.389 132.63L108 143.714L100.611 132.63ZM114.309 145.659L120.655 136.14C121.996 134.128 122.121 131.553 120.98 129.421C119.839 127.289 117.627 125.963 115.209 125.963H100.792C98.3733 125.963 96.1619 127.288 95.0207 129.421C93.8795 131.553 94.004 134.128 95.346 136.14L101.691 145.659C85.9293 142.691 73.9649 128.83 73.9649 112.219C73.9649 93.4512 89.2334 78.1827 108.001 78.1827C126.768 78.1827 142.036 93.4512 142.036 112.219C142.036 128.83 130.071 142.691 114.309 145.659Z" fill="black"/>
<path d="M87.7083 109.055C85.9608 109.055 84.5442 110.471 84.5442 112.219V115.6C84.5442 117.348 85.9608 118.765 87.7083 118.765C89.4557 118.765 90.8723 117.348 90.8723 115.6V112.219C90.8723 110.471 89.4557 109.055 87.7083 109.055Z" fill="black"/>
<path d="M128.29 109.055C126.543 109.055 125.126 110.471 125.126 112.219V115.6C125.126 117.348 126.543 118.765 128.29 118.765C130.037 118.765 131.454 117.348 131.454 115.6V112.219C131.454 110.471 130.037 109.055 128.29 109.055Z" fill="black"/>
</svg>
