<svg width="216" height="216" viewBox="0 0 216 216" fill="none" xmlns="http://www.w3.org/2000/svg">
<path d="M108 0C48.4452 0 0 48.4498 0 108C0 167.55 48.4452 216 108 216C167.555 216 216 167.55 216 108C216 48.4498 167.555 0 108 0ZM108 207C53.4111 207 8.99986 162.589 8.99986 108C8.99986 82.3222 18.9089 58.9731 34.9992 41.3623L85.6153 91.9785L56.4697 142.985C54.8526 145.806 54 149.018 54 152.279C54 162.602 62.4025 171 72.7207 171H143.279C149.111 171 154.265 168.261 157.702 164.065L174.638 181.001C157.027 197.091 133.678 207 108 207ZM117.589 87.7323L129.173 108H114.364L96.8418 90.4783L98.4112 87.7323C98.7981 87.0509 99.0001 86.2819 99.0001 85.4997V54H117V85.5001C117 86.2823 117.202 87.0514 117.589 87.7323ZM134.317 117L148.929 142.565L123.363 117H134.317ZM101.637 108H86.8295L92.2139 98.577L101.637 108ZM110.637 117L151.213 157.576C149.467 160.178 146.643 162 143.279 162H72.7207C67.3595 162 62.9999 157.636 62.9999 152.275C62.9999 150.583 63.4395 148.918 64.2832 147.454L81.686 117H110.637ZM181.001 174.638L161.691 155.328C161.857 154.329 162 153.32 162 152.275C162 149.014 161.147 145.806 159.539 142.989L126 84.305V54C128.488 54 130.5 51.9872 130.5 49.4999C130.5 47.0125 128.488 44.9997 126 44.9997H90.0003C87.5129 44.9997 85.5001 47.0125 85.5001 49.4999C85.5001 51.9872 87.5129 54 90.0003 54V83.6367L41.3623 34.9992C58.9731 18.9093 82.3222 8.99986 108 8.99986C162.589 8.99986 207 53.4111 207 108C207 133.678 197.091 157.027 181.001 174.638Z" fill="#73595A"/>
</svg>
