<svg width="216" height="216" viewBox="0 0 216 216" fill="none" xmlns="http://www.w3.org/2000/svg">
<path d="M155.345 11.8359C136.871 11.8359 119.479 20.2739 108 34.6104C96.5212 20.2739 79.1294 11.8359 60.6547 11.8359C27.2097 11.8359 0 39.0452 0 72.4906C0 87.7713 5.68434 104.229 16.8948 121.407C25.734 134.95 38.0299 149.001 53.4402 163.17C79.5732 187.195 106.081 203.535 106.346 203.697C106.854 204.008 107.427 204.163 108 204.163C108.572 204.163 109.146 204.007 109.653 203.697C109.917 203.534 136.426 187.195 162.559 163.17C177.97 149.002 190.265 134.95 199.104 121.407C210.316 104.229 216 87.7709 216 72.4906C216 39.0452 188.79 11.8359 155.345 11.8359ZM193.833 117.905C185.294 131 173.356 144.638 158.351 158.442C136.381 178.653 114.138 193.334 108 197.258C101.87 193.341 79.6875 178.704 57.7235 158.51C42.6997 144.699 30.7463 131.051 22.1944 117.948C11.6661 101.816 6.32812 86.5221 6.32812 72.4906C6.32812 42.5349 30.699 18.1641 60.6547 18.1641C78.5055 18.1641 95.2307 26.9648 105.395 41.706C105.985 42.5624 106.959 43.0741 108 43.0741C109.04 43.0741 110.014 42.5628 110.604 41.706C120.768 26.9648 137.494 18.1641 155.344 18.1641C185.301 18.1641 209.672 42.5345 209.672 72.4906C209.672 86.5099 204.343 101.789 193.833 117.905Z" fill="#73595A"/>
<path d="M157.527 42.8001C148.332 38.6509 135.99 59.4565 130.147 72.4047C129.633 73.5434 129.129 74.7044 128.648 75.8552C127.975 77.4677 128.737 79.321 130.349 79.9943C131.961 80.668 133.814 79.9065 134.488 78.2937C134.945 77.1977 135.426 76.0923 135.915 75.0081C139.408 67.2676 143.519 60.2324 147.491 55.1977C151.567 50.0314 154.129 48.719 154.907 48.6084C155.338 49.2649 156.05 52.0539 154.872 58.5284C153.725 64.8376 151.169 72.5752 147.676 80.3157C144.901 86.465 141.711 92.2067 138.521 96.8317C131.114 88.2761 120.178 82.855 108 82.855C102.017 82.855 96.334 84.1653 91.2213 86.5114C89.8257 81.9741 87.9986 77.158 85.8533 72.4047C80.0104 59.457 67.6693 38.6492 58.4728 42.8001C49.2776 46.9496 56.7132 69.9701 62.5562 82.9183C65.8468 90.2104 69.7128 96.9899 73.5439 102.215C69.7976 108.338 67.6359 115.53 67.6359 123.219C67.6359 145.476 85.7428 163.582 108 163.582C130.257 163.582 148.363 145.476 148.363 123.219C148.363 115.53 146.202 108.338 142.456 102.216C146.287 96.9916 150.156 90.2041 153.444 82.9183C159.287 69.9701 166.723 46.9496 157.527 42.8001ZM68.324 80.3153C64.8309 72.5747 62.2756 64.8371 61.1281 58.528C59.9506 52.0539 60.6619 49.2645 61.0935 48.608C61.8714 48.7186 64.4335 50.0314 68.5092 55.1973C72.4812 60.232 76.5924 67.2671 80.0855 75.0077C82.3328 79.9879 84.2106 85.0251 85.5661 89.6797C82.561 91.6962 79.8404 94.1043 77.4787 96.8321C74.2893 92.2084 71.1017 86.47 68.324 80.3153ZM100.611 143.63C100.58 143.584 100.538 143.521 100.6 143.407C100.661 143.292 100.737 143.292 100.792 143.292H115.208C115.263 143.292 115.339 143.292 115.4 143.407C115.462 143.521 115.42 143.584 115.389 143.63L108 154.714L100.611 143.63ZM114.309 156.659L120.655 147.14C121.996 145.128 122.121 142.553 120.98 140.421C119.839 138.289 117.627 136.963 115.209 136.963H100.792C98.3733 136.963 96.1619 138.288 95.0207 140.421C93.8795 142.553 94.004 145.128 95.346 147.14L101.691 156.659C85.9293 153.691 73.9649 139.83 73.9649 123.219C73.9649 104.451 89.2334 89.1827 108.001 89.1827C126.768 89.1827 142.036 104.451 142.036 123.219C142.036 139.83 130.071 153.691 114.309 156.659Z" fill="#73595A"/>
<path d="M87.7083 120.055C85.9608 120.055 84.5442 121.471 84.5442 123.219V126.6C84.5442 128.348 85.9608 129.765 87.7083 129.765C89.4557 129.765 90.8723 128.348 90.8723 126.6V123.219C90.8723 121.471 89.4557 120.055 87.7083 120.055Z" fill="#73595A"/>
<path d="M128.29 120.055C126.543 120.055 125.126 121.471 125.126 123.219V126.6C125.126 128.348 126.543 129.765 128.29 129.765C130.037 129.765 131.454 128.348 131.454 126.6V123.219C131.454 121.471 130.037 120.055 128.29 120.055Z" fill="#73595A"/>
</svg>
