<svg width="455" height="455" viewBox="0 0 455 455" fill="none" xmlns="http://www.w3.org/2000/svg">
<path d="M277.125 334.765L277.479 334.412L277.126 334.058L170.915 227.5L277.126 120.942L277.479 120.588L277.125 120.235L255.877 99.0569L255.523 98.7039L255.17 99.058L127.498 227.147L127.146 227.5L127.498 227.853L255.17 355.942L255.523 356.296L255.877 355.943L277.125 334.765ZM0.5 227.5C0.5 102.131 102.131 0.5 227.5 0.5C352.869 0.5 454.5 102.131 454.5 227.5C454.5 352.869 352.869 454.5 227.5 454.5C102.131 454.5 0.5 352.869 0.5 227.5Z" fill="#918585" stroke="#918585"/>
</svg>
