<svg width="227" height="112" viewBox="0 0 227 112" fill="none" xmlns="http://www.w3.org/2000/svg">
<path d="M24.7852 70.4062C19.4414 70.4062 15.1055 68.707 11.7773 65.3086C8.61328 62.0742 7.03125 57.9141 7.03125 52.8281V28.2188L24.7852 14.5078C30.1289 14.5078 34.4648 16.207 37.793 19.6055C40.957 22.8398 42.5391 27 42.5391 32.0859L35.8594 35.25H35.5078V32.0859C35.5078 28.9453 34.6641 26.4023 32.9766 24.457C30.8906 22.043 28.1602 20.8359 24.7852 20.8359C21.3867 20.8359 18.6562 22.043 16.5938 24.457C14.9062 26.4023 14.0625 28.9453 14.0625 32.0859V52.8281C14.0625 55.9219 14.9062 58.4648 16.5938 60.457C18.6328 62.8711 21.3633 64.0781 24.7852 64.0781C28.1367 64.0781 30.8672 62.8711 32.9766 60.457C34.6641 58.5117 35.5078 55.9688 35.5078 52.8281V50.6484H22.7461V50.2969L24.75 46.0781H42.5391V56.6953L24.7852 70.4062ZM58.0838 70.4062V40.207L72.6736 28.9219C77.1033 29.2266 80.5134 30.3516 82.9041 32.2969C85.8103 34.6641 87.2634 38.1445 87.2634 42.7383L80.5838 45.9023H80.2322V42.7383C80.2322 39.8086 79.4588 37.6992 77.9119 36.4102C76.3884 35.1211 74.6306 34.4766 72.6384 34.4766C70.5994 34.4766 68.783 35.1914 67.1892 36.6211C65.8064 37.8633 65.115 39.9023 65.115 42.7383V67.2422L58.4353 70.4062H58.0838ZM110.367 64.8516C112.828 64.8516 114.656 64.1367 115.851 62.707C117.234 61.043 117.925 58.9688 117.925 56.4844C117.925 53.625 117.164 51.5156 115.64 50.1562C114.187 48.8672 112.429 48.2227 110.367 48.2227C107.906 48.2227 106.078 48.9375 104.882 50.3672C103.5 52.0312 102.808 54.0703 102.808 56.4844C102.808 59.4141 103.57 61.5586 105.093 62.918C106.57 64.207 108.328 64.8516 110.367 64.8516ZM110.367 70.4062C106.007 70.1016 102.597 68.9766 100.136 67.0312C97.23 64.7344 95.7769 61.2539 95.7769 56.5898V53.9531L110.367 42.668C113.32 42.8789 115.839 43.4648 117.925 44.4258V42.7383C117.925 39.9023 117.164 37.793 115.64 36.4102C114.187 35.1211 112.429 34.4766 110.367 34.4766C108.07 34.4766 106.242 35.1914 104.882 36.6211L102.949 34.6523L110.367 28.9219C114.796 29.2266 118.207 30.3516 120.597 32.2969C123.503 34.6641 124.957 38.1445 124.957 42.7383V67.2422L118.277 70.4062H117.925V64.5352L110.367 70.4062ZM153.333 64.8516C155.583 64.8516 157.4 64.1367 158.783 62.707C160.189 61.2773 160.892 59.2383 160.892 56.5898V42.7383C160.892 39.9961 160.13 37.8867 158.607 36.4102C157.271 35.1211 155.513 34.4766 153.333 34.4766C151.107 34.4766 149.29 35.1914 147.884 36.6211C146.478 38.0508 145.775 40.0898 145.775 42.7383V56.5898C145.775 59.5195 146.536 61.6289 148.06 62.918C149.583 64.207 151.341 64.8516 153.333 64.8516ZM153.333 70.4062C148.904 70.1016 145.493 68.9766 143.103 67.0312C140.197 64.6406 138.743 61.1602 138.743 56.5898V40.207L153.333 28.9219C156.31 29.1328 158.829 29.707 160.892 30.6445V17.6719L167.572 14.5078H167.923V59.1211L153.333 70.4062ZM198.058 70.4062C193.628 70.1016 190.218 68.9766 187.827 67.0312C184.921 64.6406 183.468 61.1602 183.468 56.5898V40.207L198.058 28.9219C202.487 29.2266 205.898 30.3516 208.288 32.2969C211.194 34.6641 212.648 38.1445 212.648 42.7383L191.026 60.2109C191.448 61.3828 192.034 62.2852 192.784 62.918C194.308 64.207 196.042 64.8516 197.987 64.8516C200.026 64.8516 201.878 64.1367 203.542 62.707C204.925 61.5117 205.616 59.4727 205.616 56.5898L212.296 53.4258H212.648V59.1211L198.058 70.4062ZM190.499 55.043L205.616 42.7734C205.616 39.8203 204.843 37.6992 203.296 36.4102C201.773 35.1211 200.026 34.4766 198.058 34.4766C195.784 34.4766 193.956 35.1914 192.573 36.6211C191.19 38.0508 190.499 40.0898 190.499 42.7383V55.043Z" fill="#B19797"/>
<path d="M39.2617 104.359C40.3789 104.359 41.2891 103.957 41.9922 103.152C42.5547 102.504 42.8359 101.656 42.8359 100.609V93.6953C42.8359 92.6484 42.5547 91.8008 41.9922 91.1523C41.2969 90.3477 40.3867 89.9453 39.2617 89.9453C38.1289 89.9453 37.2188 90.3477 36.5312 91.1523C35.9688 91.8008 35.6875 92.6484 35.6875 93.6953V100.609C35.6875 101.641 35.9688 102.488 36.5312 103.152C37.2109 103.957 38.1211 104.359 39.2617 104.359ZM39.2617 106.469C37.4805 106.469 36.0352 105.902 34.9258 104.77C33.8711 103.691 33.3438 102.305 33.3438 100.609V92.4062L39.2617 87.8359C41.043 87.8359 42.4883 88.4023 43.5977 89.5352C44.6523 90.6133 45.1797 92 45.1797 93.6953V101.898L39.2617 106.469ZM55.9872 106.469V88.8906L58.2137 87.8359H58.3309V101.84C59.37 101.512 60.3973 101.02 61.413 100.363L59.62 97.7969L61.6825 96.8125H61.7997L63.2762 98.9336C64.4559 97.7852 65.0458 96.4258 65.0458 94.8555C65.0458 93.4805 64.4442 92.2461 63.2411 91.1523C62.2098 90.2305 60.6161 89.5508 58.4598 89.1133L61.1434 87.8359H61.2606C62.7997 88.1406 64.12 88.8398 65.2216 89.9336C66.5575 91.2617 67.2255 92.8984 67.2255 94.8438C67.2255 96.8281 66.202 98.6055 64.1552 100.176L67.87 105.496L65.8075 106.469H65.6903L62.1747 101.453C60.9794 102.109 59.6981 102.629 58.3309 103.012V105.414L56.1044 106.469H55.9872ZM83.658 106.469C81.8767 106.469 80.4314 105.902 79.322 104.77C78.2673 103.691 77.74 102.305 77.74 100.609V92.4062L83.658 87.8359C85.4392 87.8359 86.8845 88.4023 87.9939 89.5352C89.0486 90.6133 89.5759 92 89.5759 93.6953L87.3494 94.75H87.2322V93.6953C87.2322 92.6484 86.9509 91.8008 86.3884 91.1523C85.6931 90.3477 84.783 89.9453 83.658 89.9453C82.5252 89.9453 81.615 90.3477 80.9275 91.1523C80.365 91.8008 80.0837 92.6484 80.0837 93.6953V100.609C80.0837 101.641 80.365 102.488 80.9275 103.152C81.6072 103.957 82.5173 104.359 83.658 104.359C84.7752 104.359 85.6853 103.957 86.3884 103.152C86.9509 102.504 87.2322 101.656 87.2322 100.609V99.8828H82.9783V99.7656L83.6462 98.3594H89.5759V101.898L83.658 106.469ZM98.6256 99.8828V99.7656L99.2936 98.3594H100.383V92.4062L106.301 87.8359C108.083 87.8359 109.528 88.4023 110.637 89.5352C111.692 90.6133 112.219 92 112.219 93.6953V105.391L109.993 106.469H109.876V93.6953C109.876 92.6484 109.594 91.8008 109.032 91.1523C108.337 90.3477 107.426 89.9453 106.301 89.9453C105.153 89.9453 104.243 90.3477 103.571 91.1523C103.008 91.8242 102.727 92.6719 102.727 93.6953V98.3594H108.235V98.4766L107.567 99.8828H102.727V105.414L100.501 106.469H100.383V99.8828H98.6256ZM123.027 106.469V92.4062L128.945 87.8359C130.726 87.8359 132.171 88.4023 133.281 89.5352C134.335 90.6133 134.863 92 134.863 93.6953V105.391L132.636 106.469H132.519V93.6953C132.519 92.6484 132.238 91.8008 131.675 91.1523C130.98 90.3477 130.07 89.9453 128.945 89.9453C127.796 89.9453 126.886 90.3477 126.214 91.1523C125.652 91.8242 125.371 92.6719 125.371 93.6953V105.414L123.144 106.469H123.027ZM145.67 106.469V88.8906L147.897 87.8359H148.014V105.414L145.787 106.469H145.67ZM164.74 106.469C162.958 106.469 161.513 105.902 160.404 104.77C159.349 103.691 158.822 102.305 158.822 100.609V92.4062L164.74 87.8359C166.521 87.8359 167.966 88.4023 169.075 89.5352C170.13 90.6133 170.658 92 170.658 93.6953L168.431 94.75H168.314V93.6953C168.314 92.6484 168.033 91.8008 167.47 91.1523C166.775 90.3477 165.865 89.9453 164.74 89.9453C163.607 89.9453 162.697 90.3477 162.009 91.1523C161.447 91.8008 161.165 92.6484 161.165 93.6953V100.609C161.165 101.641 161.447 102.488 162.009 103.152C162.689 103.957 163.599 104.359 164.74 104.359C165.857 104.359 166.767 103.957 167.47 103.152C168.033 102.504 168.314 101.656 168.314 100.609L170.54 99.5547H170.658V101.898L164.74 106.469ZM186.914 106.469C185.094 106.469 183.649 105.902 182.578 104.77C181.524 103.652 180.996 102.266 180.996 100.609L183.223 99.5547H183.34V100.609C183.34 101.641 183.621 102.488 184.184 103.152C184.863 103.957 185.774 104.359 186.914 104.359C188.031 104.359 188.942 103.957 189.645 103.152C190.207 102.504 190.488 101.656 190.488 100.609C190.488 99.6016 190.258 98.832 189.797 98.3008C189.156 97.5664 188.192 97.1992 186.902 97.1992C185.457 97.1992 184.231 96.7305 183.223 95.793C182.442 95.0664 182.051 94.0391 182.051 92.7109V91.5859L186.914 87.8359C188.391 87.9375 189.527 88.3125 190.324 88.9609C191.293 89.75 191.777 90.9102 191.777 92.4414L189.551 93.4961H189.434V92.4414C189.434 91.4805 189.18 90.7773 188.672 90.332C188.18 89.9023 187.594 89.6875 186.914 89.6875C186.156 89.6875 185.547 89.9258 185.086 90.4023C184.625 90.8789 184.395 91.5586 184.395 92.4414C184.395 93.293 184.57 93.9141 184.922 94.3047C185.391 94.8281 186.051 95.0898 186.902 95.0898C188.77 95.0898 190.219 95.5352 191.25 96.4258C192.305 97.3398 192.832 98.7266 192.832 100.586V101.898L186.914 106.469Z" fill="#B19797"/>
</svg>
