<svg width="183" height="80" viewBox="0 0 183 80" fill="none" xmlns="http://www.w3.org/2000/svg">
<path d="M5.27344 53.0547V13.5039L10.2832 11.1309H10.5469V49.3633C14.8711 48.5898 18.4219 47.1572 21.1992 45.0654C24.5742 42.5166 26.2617 39.7744 26.2617 36.8389C26.2617 34.2549 24.6445 32.084 21.4102 30.3262C19.6699 29.377 18.0439 28.6914 16.5322 28.2695C20.3643 26.1074 22.2803 23.6377 22.2803 20.8604C22.2803 19.085 20.9883 17.5645 18.4043 16.2988C16.0488 15.1211 13.5088 14.3564 10.7842 14.0049L16.8223 11.1309H17.0859C19.7227 11.7813 21.8232 12.7656 23.3877 14.084C25.4443 15.8066 26.4727 17.8369 26.4727 20.1748C26.4727 22.2314 25.2949 24.1826 22.9395 26.0283C24.5215 26.4678 25.998 27.2412 27.3691 28.3486C29.9004 30.3877 31.166 32.8398 31.166 35.7051C31.166 39.959 28.9775 43.5713 24.6006 46.542C19.292 50.1104 12.9375 52.2812 5.53711 53.0547H5.27344ZM51.6575 53.0547C48.3353 52.8262 45.7777 51.9824 43.9847 50.5234C41.805 48.7305 40.7152 46.1201 40.7152 42.6924V30.4053L51.6575 21.9414C54.9798 22.1699 57.5374 23.0137 59.3304 24.4727C61.5101 26.248 62.5999 28.8584 62.5999 32.3037L46.3841 45.4082C46.7005 46.2871 47.14 46.9639 47.7025 47.4385C48.845 48.4053 50.1458 48.8887 51.6048 48.8887C53.1341 48.8887 54.5228 48.3525 55.7708 47.2803C56.8079 46.3838 57.3265 44.8545 57.3265 42.6924L62.3363 40.3193H62.5999V44.5908L51.6575 53.0547ZM45.9886 41.5322L57.3265 32.3301C57.3265 30.1152 56.7464 28.5244 55.5863 27.5576C54.4437 26.5908 53.1341 26.1074 51.6575 26.1074C49.9525 26.1074 48.5814 26.6436 47.5443 27.7158C46.5071 28.7881 45.9886 30.3174 45.9886 32.3037V41.5322ZM83.8825 53.0547C80.5602 52.8262 78.0026 51.9824 76.2096 50.5234C74.0299 48.748 72.9401 46.1377 72.9401 42.6924V24.3145L77.9498 21.9414H78.2135V42.6924C78.2135 44.8896 78.7848 46.4717 79.9274 47.4385C81.07 48.4053 82.3883 48.8887 83.8825 48.8887C85.5348 48.8887 86.9059 48.3525 87.9957 47.2803C89.0329 46.2607 89.5514 44.7314 89.5514 42.6924V24.3145L94.5612 21.9414H94.8248V42.6924C94.8248 44.8896 95.3961 46.4717 96.5387 47.4385C97.6813 48.4053 98.9996 48.8887 100.494 48.8887C102.146 48.8887 103.517 48.3525 104.607 47.2803C105.644 46.2607 106.163 44.7314 106.163 42.6924V24.3145L111.173 21.9414H111.436V44.5908L100.494 53.0547C97.1364 52.8262 94.5788 51.9824 92.8209 50.5234C91.9069 49.7676 91.1774 48.8711 90.6325 47.834L83.8825 53.0547ZM132.719 48.8887C134.406 48.8887 135.769 48.3525 136.806 47.2803C137.86 46.208 138.388 44.6787 138.388 42.6924V32.3037C138.388 30.2471 137.816 28.665 136.674 27.5576C135.672 26.5908 134.353 26.1074 132.719 26.1074C131.049 26.1074 129.686 26.6436 128.632 27.7158C127.577 28.7881 127.05 30.3174 127.05 32.3037V42.6924C127.05 44.8896 127.621 46.4717 128.764 47.4385C129.906 48.4053 131.225 48.8887 132.719 48.8887ZM132.719 53.0547C129.396 52.8262 126.839 51.9824 125.046 50.5234C122.866 48.7305 121.776 46.1201 121.776 42.6924V30.4053L132.719 21.9414C134.951 22.0996 136.841 22.5303 138.388 23.2334V13.5039L143.397 11.1309H143.661V44.5908L132.719 53.0547ZM166.262 53.0547C162.94 52.8262 160.382 51.9824 158.589 50.5234C156.409 48.748 155.32 46.1377 155.32 42.6924V24.3145L160.329 21.9414H160.593V42.6924C160.593 44.8896 161.164 46.4717 162.307 47.4385C163.449 48.4053 164.759 48.8887 166.236 48.8887C167.747 48.8887 169.127 48.3525 170.375 47.2803C171.412 46.3838 171.931 44.8545 171.931 42.6924V24.3145L176.941 21.9414H177.204V55.4014L166.262 63.8652C162.588 63.6191 160.048 62.793 158.642 61.3867L162.307 58.249C163.362 59.2158 164.662 59.6992 166.209 59.6992C167.791 59.6992 169.18 59.1631 170.375 58.0908C171.412 57.1592 171.931 55.6299 171.931 53.5029V48.6514L166.262 53.0547Z" fill="#B19797"/>
<path d="M48.8193 75.043C49.471 75.043 50.002 74.8083 50.4121 74.3389C50.7402 73.9606 50.9043 73.4661 50.9043 72.8555V68.8223C50.9043 68.2116 50.7402 67.7171 50.4121 67.3389C50.0065 66.8695 49.4756 66.6348 48.8193 66.6348C48.1585 66.6348 47.6276 66.8695 47.2266 67.3389C46.8984 67.7171 46.7344 68.2116 46.7344 68.8223V72.8555C46.7344 73.457 46.8984 73.9515 47.2266 74.3389C47.623 74.8083 48.154 75.043 48.8193 75.043ZM48.8193 76.2734C47.7803 76.2734 46.9372 75.943 46.29 75.2822C45.6748 74.6533 45.3672 73.8444 45.3672 72.8555V68.0703L48.8193 65.4043C49.8584 65.4043 50.7015 65.7347 51.3486 66.3955C51.9639 67.0244 52.2715 67.8333 52.2715 68.8223V73.6074L48.8193 76.2734ZM58.5759 76.2734V66.0195L59.8747 65.4043H59.943V73.5732C60.5492 73.3818 61.1485 73.0947 61.7409 72.7119L60.695 71.2148L61.8981 70.6406H61.9665L62.8278 71.8779C63.516 71.208 63.86 70.415 63.86 69.499C63.86 68.6969 63.5091 67.9769 62.8073 67.3389C62.2057 66.8011 61.2761 66.4046 60.0182 66.1494L61.5837 65.4043H61.652C62.5498 65.582 63.32 65.9899 63.9626 66.6279C64.7419 67.4027 65.1315 68.3574 65.1315 69.4922C65.1315 70.6497 64.5345 71.6865 63.3405 72.6025L65.5075 75.7061L64.3044 76.2734H64.236L62.1852 73.3477C61.488 73.7305 60.7406 74.0335 59.943 74.2568V75.6582L58.6442 76.2734H58.5759ZM74.7171 76.2734C73.6781 76.2734 72.835 75.943 72.1879 75.2822C71.5726 74.6533 71.265 73.8444 71.265 72.8555V68.0703L74.7171 65.4043C75.7562 65.4043 76.5993 65.7347 77.2464 66.3955C77.8617 67.0244 78.1693 67.8333 78.1693 68.8223L76.8705 69.4375H76.8021V68.8223C76.8021 68.2116 76.638 67.7171 76.3099 67.3389C75.9043 66.8695 75.3734 66.6348 74.7171 66.6348C74.0563 66.6348 73.5254 66.8695 73.1244 67.3389C72.7962 67.7171 72.6322 68.2116 72.6322 68.8223V72.8555C72.6322 73.457 72.7962 73.9515 73.1244 74.3389C73.5209 74.8083 74.0518 75.043 74.7171 75.043C75.3688 75.043 75.8998 74.8083 76.3099 74.3389C76.638 73.9606 76.8021 73.4661 76.8021 72.8555V72.4316H74.3207V72.3633L74.7103 71.543H78.1693V73.6074L74.7171 76.2734ZM83.4483 72.4316V72.3633L83.8379 71.543H84.4737V68.0703L87.9258 65.4043C88.9649 65.4043 89.808 65.7347 90.4551 66.3955C91.0704 67.0244 91.378 67.8333 91.378 68.8223V75.6445L90.0791 76.2734H90.0108V68.8223C90.0108 68.2116 89.8467 67.7171 89.5186 67.3389C89.113 66.8695 88.5821 66.6348 87.9258 66.6348C87.2559 66.6348 86.725 66.8695 86.333 67.3389C86.0049 67.7308 85.8409 68.2253 85.8409 68.8223V71.543H89.0537V71.6113L88.6641 72.4316H85.8409V75.6582L84.542 76.2734H84.4737V72.4316H83.4483ZM97.6823 76.2734V68.0703L101.134 65.4043C102.174 65.4043 103.017 65.7347 103.664 66.3955C104.279 67.0244 104.587 67.8333 104.587 68.8223V75.6445L103.288 76.2734H103.219V68.8223C103.219 68.2116 103.055 67.7171 102.727 67.3389C102.322 66.8695 101.791 66.6348 101.134 66.6348C100.465 66.6348 99.9336 66.8695 99.5417 67.3389C99.2136 67.7308 99.0495 68.2253 99.0495 68.8223V75.6582L97.7507 76.2734H97.6823ZM110.891 76.2734V66.0195L112.19 65.4043H112.258V75.6582L110.959 76.2734H110.891ZM122.015 76.2734C120.976 76.2734 120.133 75.943 119.485 75.2822C118.87 74.6533 118.563 73.8444 118.563 72.8555V68.0703L122.015 65.4043C123.054 65.4043 123.897 65.7347 124.544 66.3955C125.159 67.0244 125.467 67.8333 125.467 68.8223L124.168 69.4375H124.1V68.8223C124.1 68.2116 123.936 67.7171 123.607 67.3389C123.202 66.8695 122.671 66.6348 122.015 66.6348C121.354 66.6348 120.823 66.8695 120.422 67.3389C120.094 67.7171 119.93 68.2116 119.93 68.8223V72.8555C119.93 73.457 120.094 73.9515 120.422 74.3389C120.818 74.8083 121.349 75.043 122.015 75.043C122.666 75.043 123.197 74.8083 123.607 74.3389C123.936 73.9606 124.1 73.4661 124.1 72.8555L125.399 72.2402H125.467V73.6074L122.015 76.2734ZM134.95 76.2734C133.888 76.2734 133.045 75.943 132.421 75.2822C131.805 74.6305 131.498 73.8216 131.498 72.8555L132.797 72.2402H132.865V72.8555C132.865 73.457 133.029 73.9515 133.357 74.3389C133.754 74.8083 134.285 75.043 134.95 75.043C135.602 75.043 136.133 74.8083 136.543 74.3389C136.871 73.9606 137.035 73.4661 137.035 72.8555C137.035 72.2676 136.9 71.8187 136.632 71.5088C136.258 71.0804 135.695 70.8662 134.943 70.8662C134.1 70.8662 133.385 70.5928 132.797 70.0459C132.341 69.6221 132.113 69.0228 132.113 68.248V67.5918L134.95 65.4043C135.811 65.4635 136.474 65.6823 136.939 66.0605C137.504 66.5208 137.787 67.1976 137.787 68.0908L136.488 68.7061H136.42V68.0908C136.42 67.5303 136.272 67.1201 135.975 66.8604C135.688 66.6097 135.346 66.4844 134.95 66.4844C134.508 66.4844 134.152 66.6234 133.884 66.9014C133.615 67.1794 133.48 67.5758 133.48 68.0908C133.48 68.5876 133.583 68.9499 133.788 69.1777C134.061 69.4831 134.446 69.6357 134.943 69.6357C136.032 69.6357 136.878 69.8955 137.479 70.415C138.094 70.9482 138.402 71.7572 138.402 72.8418V73.6074L134.95 76.2734Z" fill="#B19797"/>
</svg>
