<svg width="164" height="75" viewBox="0 0 164 75" fill="none" xmlns="http://www.w3.org/2000/svg">
<path d="M18.5889 53.0547C14.5811 53.0547 11.3291 51.7803 8.83301 49.2314C6.45996 46.8057 5.27344 43.6855 5.27344 39.8711V21.4141L18.5889 11.1309C22.5967 11.1309 25.8486 12.4053 28.3447 14.9541C30.7178 17.3799 31.9043 20.5 31.9043 24.3145L26.8945 26.6875H26.6309V24.3145C26.6309 21.959 25.998 20.0518 24.7324 18.5928C23.168 16.7822 21.1201 15.877 18.5889 15.877C16.04 15.877 13.9922 16.7822 12.4453 18.5928C11.1797 20.0518 10.5469 21.959 10.5469 24.3145V39.8711C10.5469 42.1914 11.1797 44.0986 12.4453 45.5928C13.9746 47.4033 16.0225 48.3086 18.5889 48.3086C21.1025 48.3086 23.1504 47.4033 24.7324 45.5928C25.998 44.1338 26.6309 42.2266 26.6309 39.8711V38.2363H17.0596V37.9727L18.5625 34.8086H31.9043V42.7715L18.5889 53.0547ZM43.5628 53.0547V30.4053L54.5052 21.9414C57.8275 22.1699 60.3851 23.0137 62.178 24.4727C64.3577 26.248 65.4476 28.8584 65.4476 32.3037L60.4378 34.6768H60.1741V32.3037C60.1741 30.1064 59.5941 28.5244 58.4339 27.5576C57.2913 26.5908 55.973 26.1074 54.4788 26.1074C52.9495 26.1074 51.5872 26.6436 50.3919 27.7158C49.3548 28.6475 48.8363 30.1768 48.8363 32.3037V50.6816L43.8265 53.0547H43.5628ZM82.775 48.8887C84.6207 48.8887 85.9918 48.3525 86.8883 47.2803C87.9254 46.0322 88.444 44.4766 88.444 42.6133C88.444 40.4688 87.8727 38.8867 86.7301 37.8672C85.6403 36.9004 84.3219 36.417 82.775 36.417C80.9293 36.417 79.5582 36.9531 78.6618 38.0254C77.6246 39.2734 77.1061 40.8027 77.1061 42.6133C77.1061 44.8105 77.6774 46.4189 78.82 47.4385C79.9274 48.4053 81.2457 48.8887 82.775 48.8887ZM82.775 53.0547C79.5055 52.8262 76.9479 51.9824 75.1022 50.5234C72.9225 48.8008 71.8327 46.1904 71.8327 42.6924V40.7148L82.775 32.251C84.9899 32.4092 86.8795 32.8486 88.444 33.5693V32.3037C88.444 30.1768 87.8727 28.5947 86.7301 27.5576C85.6403 26.5908 84.3219 26.1074 82.775 26.1074C81.0524 26.1074 79.6813 26.6436 78.6618 27.7158L77.2116 26.2393L82.775 21.9414C86.0973 22.1699 88.6549 23.0137 90.4479 24.4727C92.6276 26.248 93.7174 28.8584 93.7174 32.3037V50.6816L88.7077 53.0547H88.444V48.6514L82.775 53.0547ZM115 48.8887C116.687 48.8887 118.05 48.3525 119.087 47.2803C120.142 46.208 120.669 44.6787 120.669 42.6924V32.3037C120.669 30.2471 120.098 28.665 118.955 27.5576C117.953 26.5908 116.635 26.1074 115 26.1074C113.33 26.1074 111.968 26.6436 110.913 27.7158C109.858 28.7881 109.331 30.3174 109.331 32.3037V42.6924C109.331 44.8896 109.902 46.4717 111.045 47.4385C112.187 48.4053 113.506 48.8887 115 48.8887ZM115 53.0547C111.678 52.8262 109.12 51.9824 107.327 50.5234C105.147 48.7305 104.058 46.1201 104.058 42.6924V30.4053L115 21.9414C117.232 22.0996 119.122 22.5303 120.669 23.2334V13.5039L125.679 11.1309H125.942V44.5908L115 53.0547ZM148.543 53.0547C145.221 52.8262 142.663 51.9824 140.87 50.5234C138.691 48.7305 137.601 46.1201 137.601 42.6924V30.4053L148.543 21.9414C151.866 22.1699 154.423 23.0137 156.216 24.4727C158.396 26.248 159.486 28.8584 159.486 32.3037L143.27 45.4082C143.586 46.2871 144.026 46.9639 144.588 47.4385C145.731 48.4053 147.032 48.8887 148.491 48.8887C150.02 48.8887 151.408 48.3525 152.657 47.2803C153.694 46.3838 154.212 44.8545 154.212 42.6924L159.222 40.3193H159.486V44.5908L148.543 53.0547ZM142.874 41.5322L154.212 32.3301C154.212 30.1152 153.632 28.5244 152.472 27.5576C151.329 26.5908 150.02 26.1074 148.543 26.1074C146.838 26.1074 145.467 26.6436 144.43 27.7158C143.393 28.7881 142.874 30.3174 142.874 32.3037V41.5322Z" fill="white"/>
<path d="M38.8193 70.043C39.471 70.043 40.002 69.8083 40.4121 69.3389C40.7402 68.9606 40.9043 68.4661 40.9043 67.8555V63.8223C40.9043 63.2116 40.7402 62.7171 40.4121 62.3389C40.0065 61.8695 39.4756 61.6348 38.8193 61.6348C38.1585 61.6348 37.6276 61.8695 37.2266 62.3389C36.8984 62.7171 36.7344 63.2116 36.7344 63.8223V67.8555C36.7344 68.457 36.8984 68.9515 37.2266 69.3389C37.623 69.8083 38.154 70.043 38.8193 70.043ZM38.8193 71.2734C37.7803 71.2734 36.9372 70.943 36.29 70.2822C35.6748 69.6533 35.3672 68.8444 35.3672 67.8555V63.0703L38.8193 60.4043C39.8584 60.4043 40.7015 60.7347 41.3486 61.3955C41.9639 62.0244 42.2715 62.8333 42.2715 63.8223V68.6074L38.8193 71.2734ZM48.5759 71.2734V61.0195L49.8747 60.4043H49.943V68.5732C50.5492 68.3818 51.1485 68.0947 51.7409 67.7119L50.695 66.2148L51.8981 65.6406H51.9665L52.8278 66.8779C53.516 66.208 53.86 65.415 53.86 64.499C53.86 63.6969 53.5091 62.9769 52.8073 62.3389C52.2057 61.8011 51.2761 61.4046 50.0182 61.1494L51.5837 60.4043H51.652C52.5498 60.582 53.32 60.9899 53.9626 61.6279C54.7419 62.4027 55.1315 63.3574 55.1315 64.4922C55.1315 65.6497 54.5345 66.6865 53.3405 67.6025L55.5075 70.7061L54.3044 71.2734H54.236L52.1852 68.3477C51.488 68.7305 50.7406 69.0335 49.943 69.2568V70.6582L48.6442 71.2734H48.5759ZM64.7171 71.2734C63.6781 71.2734 62.835 70.943 62.1879 70.2822C61.5726 69.6533 61.265 68.8444 61.265 67.8555V63.0703L64.7171 60.4043C65.7562 60.4043 66.5993 60.7347 67.2464 61.3955C67.8617 62.0244 68.1693 62.8333 68.1693 63.8223L66.8705 64.4375H66.8021V63.8223C66.8021 63.2116 66.638 62.7171 66.3099 62.3389C65.9043 61.8695 65.3734 61.6348 64.7171 61.6348C64.0563 61.6348 63.5254 61.8695 63.1244 62.3389C62.7962 62.7171 62.6322 63.2116 62.6322 63.8223V67.8555C62.6322 68.457 62.7962 68.9515 63.1244 69.3389C63.5209 69.8083 64.0518 70.043 64.7171 70.043C65.3688 70.043 65.8998 69.8083 66.3099 69.3389C66.638 68.9606 66.8021 68.4661 66.8021 67.8555V67.4316H64.3207V67.3633L64.7103 66.543H68.1693V68.6074L64.7171 71.2734ZM73.4483 67.4316V67.3633L73.8379 66.543H74.4737V63.0703L77.9258 60.4043C78.9649 60.4043 79.808 60.7347 80.4551 61.3955C81.0704 62.0244 81.378 62.8333 81.378 63.8223V70.6445L80.0791 71.2734H80.0108V63.8223C80.0108 63.2116 79.8467 62.7171 79.5186 62.3389C79.113 61.8695 78.5821 61.6348 77.9258 61.6348C77.2559 61.6348 76.725 61.8695 76.333 62.3389C76.0049 62.7308 75.8409 63.2253 75.8409 63.8223V66.543H79.0537V66.6113L78.6641 67.4316H75.8409V70.6582L74.542 71.2734H74.4737V67.4316H73.4483ZM87.6823 71.2734V63.0703L91.1345 60.4043C92.1736 60.4043 93.0167 60.7347 93.6638 61.3955C94.279 62.0244 94.5866 62.8333 94.5866 63.8223V70.6445L93.2878 71.2734H93.2195V63.8223C93.2195 63.2116 93.0554 62.7171 92.7273 62.3389C92.3217 61.8695 91.7907 61.6348 91.1345 61.6348C90.4646 61.6348 89.9336 61.8695 89.5417 62.3389C89.2136 62.7308 89.0495 63.2253 89.0495 63.8223V70.6582L87.7507 71.2734H87.6823ZM100.891 71.2734V61.0195L102.19 60.4043H102.258V70.6582L100.959 71.2734H100.891ZM112.015 71.2734C110.976 71.2734 110.133 70.943 109.485 70.2822C108.87 69.6533 108.563 68.8444 108.563 67.8555V63.0703L112.015 60.4043C113.054 60.4043 113.897 60.7347 114.544 61.3955C115.159 62.0244 115.467 62.8333 115.467 63.8223L114.168 64.4375H114.1V63.8223C114.1 63.2116 113.936 62.7171 113.607 62.3389C113.202 61.8695 112.671 61.6348 112.015 61.6348C111.354 61.6348 110.823 61.8695 110.422 62.3389C110.094 62.7171 109.93 63.2116 109.93 63.8223V67.8555C109.93 68.457 110.094 68.9515 110.422 69.3389C110.818 69.8083 111.349 70.043 112.015 70.043C112.666 70.043 113.197 69.8083 113.607 69.3389C113.936 68.9606 114.1 68.4661 114.1 67.8555L115.399 67.2402H115.467V68.6074L112.015 71.2734ZM124.95 71.2734C123.888 71.2734 123.045 70.943 122.421 70.2822C121.805 69.6305 121.498 68.8216 121.498 67.8555L122.797 67.2402H122.865V67.8555C122.865 68.457 123.029 68.9515 123.357 69.3389C123.754 69.8083 124.285 70.043 124.95 70.043C125.602 70.043 126.133 69.8083 126.543 69.3389C126.871 68.9606 127.035 68.4661 127.035 67.8555C127.035 67.2676 126.9 66.8187 126.632 66.5088C126.258 66.0804 125.695 65.8662 124.943 65.8662C124.1 65.8662 123.385 65.5928 122.797 65.0459C122.341 64.6221 122.113 64.0228 122.113 63.248V62.5918L124.95 60.4043C125.811 60.4635 126.474 60.6823 126.939 61.0605C127.504 61.5208 127.787 62.1976 127.787 63.0908L126.488 63.7061H126.42V63.0908C126.42 62.5303 126.272 62.1201 125.975 61.8604C125.688 61.6097 125.346 61.4844 124.95 61.4844C124.508 61.4844 124.152 61.6234 123.884 61.9014C123.615 62.1794 123.48 62.5758 123.48 63.0908C123.48 63.5876 123.583 63.9499 123.788 64.1777C124.061 64.4831 124.446 64.6357 124.943 64.6357C126.032 64.6357 126.878 64.8955 127.479 65.415C128.094 65.9482 128.402 66.7572 128.402 67.8418V68.6074L124.95 71.2734Z" fill="white"/>
</svg>
