<svg width="183" height="65" viewBox="0 0 183 65" fill="none" xmlns="http://www.w3.org/2000/svg">
<path d="M5.27344 53.0547V13.5039L10.2832 11.1309H10.5469V49.3633C14.8711 48.5898 18.4219 47.1572 21.1992 45.0654C24.5742 42.5166 26.2617 39.7744 26.2617 36.8389C26.2617 34.2549 24.6445 32.084 21.4102 30.3262C19.6699 29.377 18.0439 28.6914 16.5322 28.2695C20.3643 26.1074 22.2803 23.6377 22.2803 20.8604C22.2803 19.085 20.9883 17.5645 18.4043 16.2988C16.0488 15.1211 13.5088 14.3564 10.7842 14.0049L16.8223 11.1309H17.0859C19.7227 11.7813 21.8232 12.7656 23.3877 14.084C25.4443 15.8066 26.4727 17.8369 26.4727 20.1748C26.4727 22.2314 25.2949 24.1826 22.9395 26.0283C24.5215 26.4678 25.998 27.2412 27.3691 28.3486C29.9004 30.3877 31.166 32.8398 31.166 35.7051C31.166 39.959 28.9775 43.5713 24.6006 46.542C19.292 50.1104 12.9375 52.2812 5.53711 53.0547H5.27344ZM51.6575 53.0547C48.3353 52.8262 45.7777 51.9824 43.9847 50.5234C41.805 48.7305 40.7152 46.1201 40.7152 42.6924V30.4053L51.6575 21.9414C54.9798 22.1699 57.5374 23.0137 59.3304 24.4727C61.5101 26.248 62.5999 28.8584 62.5999 32.3037L46.3841 45.4082C46.7005 46.2871 47.14 46.9639 47.7025 47.4385C48.845 48.4053 50.1458 48.8887 51.6048 48.8887C53.1341 48.8887 54.5228 48.3525 55.7708 47.2803C56.8079 46.3838 57.3265 44.8545 57.3265 42.6924L62.3363 40.3193H62.5999V44.5908L51.6575 53.0547ZM45.9886 41.5322L57.3265 32.3301C57.3265 30.1152 56.7464 28.5244 55.5863 27.5576C54.4437 26.5908 53.1341 26.1074 51.6575 26.1074C49.9525 26.1074 48.5814 26.6436 47.5443 27.7158C46.5071 28.7881 45.9886 30.3174 45.9886 32.3037V41.5322ZM83.8825 53.0547C80.5602 52.8262 78.0026 51.9824 76.2096 50.5234C74.0299 48.748 72.9401 46.1377 72.9401 42.6924V24.3145L77.9498 21.9414H78.2135V42.6924C78.2135 44.8896 78.7848 46.4717 79.9274 47.4385C81.07 48.4053 82.3883 48.8887 83.8825 48.8887C85.5348 48.8887 86.9059 48.3525 87.9957 47.2803C89.0329 46.2607 89.5514 44.7314 89.5514 42.6924V24.3145L94.5612 21.9414H94.8248V42.6924C94.8248 44.8896 95.3961 46.4717 96.5387 47.4385C97.6813 48.4053 98.9996 48.8887 100.494 48.8887C102.146 48.8887 103.517 48.3525 104.607 47.2803C105.644 46.2607 106.163 44.7314 106.163 42.6924V24.3145L111.173 21.9414H111.436V44.5908L100.494 53.0547C97.1364 52.8262 94.5788 51.9824 92.8209 50.5234C91.9069 49.7676 91.1774 48.8711 90.6325 47.834L83.8825 53.0547ZM132.719 48.8887C134.406 48.8887 135.769 48.3525 136.806 47.2803C137.86 46.208 138.388 44.6787 138.388 42.6924V32.3037C138.388 30.2471 137.816 28.665 136.674 27.5576C135.672 26.5908 134.353 26.1074 132.719 26.1074C131.049 26.1074 129.686 26.6436 128.632 27.7158C127.577 28.7881 127.05 30.3174 127.05 32.3037V42.6924C127.05 44.8896 127.621 46.4717 128.764 47.4385C129.906 48.4053 131.225 48.8887 132.719 48.8887ZM132.719 53.0547C129.396 52.8262 126.839 51.9824 125.046 50.5234C122.866 48.7305 121.776 46.1201 121.776 42.6924V30.4053L132.719 21.9414C134.951 22.0996 136.841 22.5303 138.388 23.2334V13.5039L143.397 11.1309H143.661V44.5908L132.719 53.0547ZM166.262 53.0547C162.94 52.8262 160.382 51.9824 158.589 50.5234C156.409 48.748 155.32 46.1377 155.32 42.6924V24.3145L160.329 21.9414H160.593V42.6924C160.593 44.8896 161.164 46.4717 162.307 47.4385C163.449 48.4053 164.759 48.8887 166.236 48.8887C167.747 48.8887 169.127 48.3525 170.375 47.2803C171.412 46.3838 171.931 44.8545 171.931 42.6924V24.3145L176.941 21.9414H177.204V55.4014L166.262 63.8652C162.588 63.6191 160.048 62.793 158.642 61.3867L162.307 58.249C163.362 59.2158 164.662 59.6992 166.209 59.6992C167.791 59.6992 169.18 59.1631 170.375 58.0908C171.412 57.1592 171.931 55.6299 171.931 53.5029V48.6514L166.262 53.0547Z" fill="white"/>
</svg>
