<svg width="455" height="455" viewBox="0 0 455 455" fill="none" xmlns="http://www.w3.org/2000/svg">
<path d="M199.123 355.943L199.477 356.296L199.83 355.942L327.502 227.853L327.854 227.5L327.502 227.147L199.83 99.058L199.477 98.7039L199.123 99.0569L177.875 120.235L177.521 120.588L177.874 120.942L284.085 227.5L177.874 334.058L177.521 334.412L177.875 334.765L199.123 355.943ZM0.5 227.5C0.5 102.131 102.131 0.5 227.5 0.5C352.869 0.5 454.5 102.131 454.5 227.5C454.5 352.869 352.869 454.5 227.5 454.5C102.131 454.5 0.5 352.869 0.5 227.5Z" fill="#918585" stroke="#918585"/>
</svg>
